# xmcd
#
# Track frame offsets:
# 150
# 21016
# 44521
# 57000
# 71475
# 89289
# 113214
# 134172
# 156142
# 180871
# 202678
# 229696
# 256737
#
# Disc length: 3773 seconds
#
# Revision: 0
# Processed by: cddbd v1.5.2PL0 Copyright (c) Steve Scherf et al.
# Submitted via: Axialis_AX_CDPlayer 2.6
#
DISCID=a20ebb0d
DTITLE=Various Artist - New Orleans Social Club - Sing Me Back Home
DYEAR=1900
DGENRE=
TTITLE0=This Is My Country - Cyril Neville
TTITLE1=Fortunate Son - Ivan Neville
TTITLE2=Look Up - Irma Thomas and Marcia Ball
TTITLE3=Walking To New Orleans - Dr. John
TTITLE4=Hey Troy, Your Mama's Calling You - Troy (Trombone Shorty) Andrews
TTITLE5=Loving You Is On My Mind - The New Orleans Social Club
TTITLE6=Somewhere - Henry Butler
TTITLE7=99 1/2 Won't Do - Mighty Chariots Of Fire
TTITLE8=Make A Better World - The Subdudes
TTITLE9=First Taste Of Hurt - Willie Tee
TTITLE10=Where Y'at? Medley - The Sixth Ward All-Star Brass Band Revue feat.
TTITLE10=Brother \nCharles Neville
TTITLE11=Chase - Big Chief Monk Boudreaux
TTITLE12=Why - John Boutté
EXTD=
EXTT0=
EXTT1=
EXTT2=
EXTT3=
EXTT4=
EXTT5=
EXTT6=
EXTT7=
EXTT8=
EXTT9=
EXTT10=Jesus On The Mainline/I'm Walking/The Saints
EXTT11=
EXTT12=
PLAYORDER=
